<?xml version="1.0" standalone="no"?>
<!DOCTYPE svg PUBLIC "-//W3C//DTD SVG 20010904//EN"
 "http://www.w3.org/TR/2001/REC-SVG-20010904/DTD/svg10.dtd">
<svg version="1.0" xmlns="http://www.w3.org/2000/svg"
 width="1366.000000pt" height="1366.000000pt" viewBox="0 0 1366.000000 1366.000000"
 preserveAspectRatio="xMidYMid meet">
<metadata>
Created by potrace 1.11, written by Peter Selinger 2001-2013
</metadata>
<g transform="translate(0.000000,1366.000000) scale(0.100000,-0.100000)"
fill="#000000" stroke="none">
<path d="M5190 7997 c-16 -4 -30 -11 -30 -16 0 -10 26 -69 40 -91 39 -61 90
-152 90 -160 0 -6 3 -10 8 -10 4 0 16 -19 27 -43 11 -23 22 -44 25 -47 6 -5
48 -77 84 -145 11 -22 23 -42 26 -45 3 -3 11 -16 19 -30 35 -62 177 -308 206
-358 6 -9 46 -80 90 -157 44 -77 83 -141 87 -143 5 -2 8 -8 8 -13 0 -4 23 -46
50 -93 28 -47 50 -89 50 -95 0 -6 5 -11 10 -11 6 0 10 -6 10 -14 0 -7 7 -19
15 -26 9 -7 13 -15 11 -18 -3 -2 8 -24 24 -48 17 -23 30 -45 30 -48 0 -3 25
-46 55 -97 30 -50 55 -93 55 -95 0 -3 20 -37 43 -77 80 -132 236 -404 242
-420 12 -29 75 -23 75 8 0 4 12 25 28 48 30 47 37 58 85 137 19 30 55 90 82
133 45 72 47 78 31 95 -9 10 -16 21 -16 24 0 18 -103 178 -110 171 -16 -18
-100 -145 -100 -152 0 -4 -10 -17 -23 -29 l-22 -21 -125 216 c-69 119 -137
237 -151 262 -14 25 -36 64 -49 86 -12 22 -31 52 -41 67 -11 14 -19 29 -19 34
0 4 -13 28 -29 53 -41 66 -145 245 -146 251 0 3 -8 16 -17 30 -35 55 -88 152
-88 161 0 5 -4 9 -9 9 -5 0 -11 8 -14 18 -4 9 -18 37 -33 62 -14 25 -48 83
-75 130 -27 47 -54 92 -59 100 -5 8 -18 31 -28 50 -10 19 -58 101 -105 182
-48 81 -87 152 -87 158 0 5 -11 12 -25 16 -37 9 -171 10 -205 1z"/>
<path d="M8285 8000 c-20 -3 -38 -18 -56 -45 -26 -39 -194 -327 -231 -395 -10
-19 -32 -57 -49 -85 -16 -27 -34 -59 -39 -70 -6 -11 -21 -38 -35 -60 -33 -54
-144 -246 -175 -304 -14 -25 -27 -48 -31 -51 -3 -3 -34 -56 -70 -119 -93 -165
-109 -194 -125 -218 -14 -22 -34 -58 -82 -143 -14 -25 -41 -72 -61 -105 -20
-33 -45 -77 -56 -98 -11 -20 -23 -37 -27 -37 -5 0 -8 -6 -8 -14 0 -17 -71
-136 -81 -136 -9 0 -38 43 -82 123 -15 26 -39 68 -54 95 -43 76 -53 96 -53
108 0 14 92 178 102 182 4 2 8 8 8 14 0 9 66 125 100 178 6 8 13 21 17 29 4 8
42 76 86 150 125 216 142 266 140 423 -2 162 -70 309 -196 424 -29 27 -67 56
-83 64 -16 8 -36 19 -44 26 -65 50 -296 79 -394 50 -26 -8 -50 -15 -54 -15
-24 -3 -81 -27 -104 -42 -14 -11 -30 -19 -36 -19 -19 0 -141 -121 -178 -176
-33 -51 -70 -132 -79 -174 -2 -8 -7 -33 -12 -55 -12 -50 -9 -164 5 -232 11
-51 35 -105 85 -195 15 -27 38 -67 51 -90 13 -24 46 -83 75 -132 28 -49 51
-91 51 -93 0 -3 8 -17 19 -31 10 -15 31 -49 45 -77 15 -27 41 -72 57 -100 17
-27 33 -58 36 -67 3 -10 9 -18 14 -18 5 0 9 -5 9 -10 0 -6 17 -39 39 -74 21
-35 44 -77 52 -95 8 -17 16 -31 19 -31 4 0 17 -22 31 -50 13 -27 27 -50 32
-50 4 0 7 -4 7 -10 0 -8 55 -106 90 -160 6 -8 14 -25 20 -37 5 -12 27 -51 50
-86 22 -35 40 -67 40 -71 0 -15 60 -94 76 -100 25 -10 61 19 85 67 12 23 25
44 28 47 4 3 12 16 18 30 7 14 26 48 43 75 16 28 33 56 37 64 3 8 51 91 106
185 55 94 110 189 122 211 13 22 48 83 78 135 31 52 92 160 138 240 45 80 87
148 93 152 6 4 7 8 3 8 -5 0 0 12 11 28 10 15 22 34 25 42 4 8 16 29 27 45 11
17 23 37 27 45 4 8 35 64 70 123 35 60 74 127 87 150 99 174 151 262 158 265
4 2 8 8 8 13 0 7 26 55 113 204 6 11 24 41 39 66 32 53 36 94 11 104 -22 8
-149 12 -188 5z m-1375 -235 c60 -12 149 -66 195 -117 37 -42 51 -68 82 -158
10 -27 9 -134 0 -170 -11 -44 -37 -101 -54 -118 -7 -7 -13 -20 -13 -28 0 -8
-4 -14 -9 -14 -5 0 -11 -8 -14 -17 -4 -10 -18 -37 -32 -60 -36 -62 -61 -105
-140 -243 -38 -67 -78 -126 -88 -132 -21 -11 -29 -3 -67 70 -14 26 -27 49 -30
52 -4 3 -19 28 -34 55 -16 28 -40 70 -54 95 -14 25 -31 54 -37 65 -6 11 -22
38 -36 60 -13 22 -30 51 -37 65 -7 14 -27 50 -44 80 -28 50 -31 62 -30 145 0
102 0 103 29 167 68 152 246 239 413 203z"/>
<path d="M6738 7570 c-113 -60 -134 -204 -44 -295 55 -55 115 -69 186 -45 61
21 83 40 110 94 21 45 26 100 11 138 -5 13 -8 25 -7 28 0 3 -12 19 -28 37 -55
61 -156 80 -228 43z"/>
</g>
</svg>
